<svg xmlns="http://www.w3.org/2000/svg" xmlns:xlink="http://www.w3.org/1999/xlink" version="1.1" x="0px" y="0px" viewBox="0 0 100 125" style="enable-background:new 0 0 100 100;" xml:space="preserve"><style type="text/css">
	.st0{display:none;}
	.st1{display:inline;}
</style><g class="st0"><g class="st1"><path d="M80.59,70.5l13.44-13.43c0.78-0.78,0.78-2.05,0-2.83l-6.36-6.36c-0.39-0.39-0.9-0.59-1.41-0.59s-1.02,0.2-1.41,0.59    L71.39,61.31L57.96,47.88c-0.39-0.39-0.9-0.59-1.41-0.59s-1.02,0.2-1.41,0.59l-6.36,6.36c-0.78,0.78-0.78,2.05,0,2.83L62.2,70.5    L48.77,83.94c-0.78,0.78-0.78,2.05,0,2.83l6.36,6.36c0.39,0.39,0.9,0.59,1.41,0.59s1.02-0.2,1.41-0.59L71.39,79.7l13.44,13.43    c0.39,0.39,0.9,0.59,1.41,0.59s1.02-0.2,1.41-0.59l6.36-6.36c0.78-0.78,0.78-2.05,0-2.83L80.59,70.5z"/><path d="M56.54,70.5L45.94,59.9c-1.13-1.13-1.76-2.64-1.76-4.24c0-1.6,0.62-3.11,1.76-4.24l6.36-6.36    c1.13-1.13,2.64-1.76,4.24-1.76c0.05,0,0.09,0.01,0.14,0.01V10.43c0-1.61-0.93-3.08-2.4-3.76C52.84,6,51.13,6.22,49.9,7.24    L26.25,26.97H9.53c-2.28,0-4.13,1.85-4.13,4.13v24.81c0,2.28,1.85,4.13,4.13,4.13h16.72l22.22,18.53L56.54,70.5z"/></g></g><g class="st0"><g class="st1"><path d="M83.23,50l10.32-9.75c0.92-0.87,1.45-2.09,1.45-3.36c0-1.27-0.53-2.49-1.45-3.36l-10.32-9.75l10.32-9.75L87.19,7.3l0,0    L73.31,20.41c-0.92,0.87-1.45,2.09-1.45,3.36c0,1.27,0.53,2.49,1.45,3.36l10.32,9.75l-10.32,9.75c-0.92,0.87-1.45,2.09-1.45,3.36    s0.53,2.49,1.45,3.36l10.32,9.75l-10.32,9.75c-0.92,0.87-1.45,2.09-1.45,3.36c0,1.27,0.53,2.49,1.45,3.36L87.19,92.7l6.35-6.73    l-10.32-9.75l10.32-9.75C94.47,65.6,95,64.38,95,63.11c0-1.27-0.53-2.49-1.45-3.36L83.23,50z"/><path d="M56.29,15.8c0-1.62-0.93-3.09-2.4-3.76c-1.45-0.67-3.16-0.44-4.38,0.58l-10.34,8.62l17.12,17.12V15.8z"/><path d="M44.55,39.71L32.03,27.19L15,10.15L8.45,16.7L24.1,32.34H9.14C6.85,32.34,5,34.19,5,36.48v24.81    c0,2.28,1.85,4.14,4.14,4.14h16.71l23.66,19.73c0.74,0.62,1.68,0.95,2.65,0.95c0.6,0,1.19-0.12,1.74-0.37    c1.47-0.68,2.4-2.15,2.4-3.76V64.54l9.43,9.43l6.54-6.54L44.55,39.71z"/></g></g><g class="st0"><g class="st1"><path d="M67.66,17.67c0-1.62-0.93-3.09-2.4-3.76c-1.45-0.67-3.16-0.44-4.38,0.58l-10.34,8.62l17.12,17.12V17.67z"/><path d="M55.92,41.58L43.4,29.06L26.37,12.02l-6.54,6.54l15.65,15.65H20.51c-2.28,0-4.14,1.85-4.14,4.14v24.81    c0,2.28,1.85,4.14,4.14,4.14h16.71l23.66,19.73c0.74,0.62,1.68,0.95,2.65,0.95c0.6,0,1.19-0.12,1.74-0.37    c1.47-0.68,2.4-2.15,2.4-3.76V66.41l9.43,9.43l6.54-6.54L55.92,41.58z"/></g></g><g><g><path d="M56.48,13.16c-1.45-0.67-3.16-0.44-4.38,0.58L28.44,33.47H11.72c-2.28,0-4.13,1.85-4.13,4.13v24.81    c0,2.28,1.85,4.13,4.13,4.13h16.72l23.65,19.72c0.74,0.62,1.68,0.95,2.65,0.95c0.6,0,1.19-0.12,1.74-0.37    c1.47-0.68,2.4-2.15,2.4-3.76V16.93C58.88,15.31,57.94,13.84,56.48,13.16z"/><path d="M86.73,31.44c-3.6-5.38-8.7-9.88-14.78-13.16c-1.46-0.79-3.28-0.24-4.07,1.21c-0.79,1.46-0.24,3.28,1.21,4.07    c5.3,2.86,9.65,6.74,12.65,11.22c3,4.49,4.67,9.56,4.68,14.96c0,5.41-1.67,10.47-4.68,14.96c-3,4.48-7.35,8.36-12.65,11.22    c-1.46,0.79-2,2.61-1.21,4.07c0.79,1.46,2.61,2,4.07,1.21c6.08-3.29,11.18-7.79,14.78-13.16c3.6-5.37,5.69-11.64,5.69-18.3    C92.42,43.08,90.33,36.81,86.73,31.44z"/><path d="M68.84,61.74c-1.37,0.93-1.73,2.79-0.81,4.17c0.93,1.37,2.79,1.73,4.17,0.81c5.39-3.64,8.92-9.89,8.92-16.97    c0-7.07-3.53-13.33-8.92-16.97c-1.37-0.93-3.24-0.57-4.17,0.81c-0.93,1.37-0.57,3.24,0.81,4.17c3.76,2.54,6.28,6.94,6.28,12    C75.12,54.79,72.6,59.19,68.84,61.74z"/></g></g><text x="0" y="115" fill="#000000" font-size="5px" font-weight="bold" font-family="'Helvetica Neue', Helvetica, Arial-Unicode, Arial, Sans-serif">Created by Rodrigo Sanches</text><text x="0" y="120" fill="#000000" font-size="5px" font-weight="bold" font-family="'Helvetica Neue', Helvetica, Arial-Unicode, Arial, Sans-serif">from the Noun Project</text></svg>