<svg id="music-and-code-svg" viewBox="0 0 974 588" fill="none" xmlns="http://www.w3.org/2000/svg">
<g id="music-and-code" clip-path="url(#clip0)">
<path id="Vector" d="M868.029 210.452H618.137C616.811 210.451 615.54 209.923 614.603 208.986C613.665 208.049 613.138 206.778 613.137 205.452V158.352H615.137V205.452C615.137 206.248 615.454 207.01 616.016 207.573C616.579 208.135 617.341 208.451 618.137 208.452H868.029C868.825 208.451 869.587 208.135 870.15 207.573C870.712 207.01 871.029 206.248 871.029 205.452V158.023H873.029V205.452C873.028 206.778 872.501 208.049 871.563 208.986C870.626 209.923 869.355 210.451 868.029 210.452Z" fill="#3F3D56"/>
<path id="Vector_2" d="M958.617 157.352H371.397V159.352H958.617V157.352Z" fill="#3F3D56"/>
<path id="Vector_3" d="M424.782 159.352C424.517 159.352 424.263 159.247 424.075 159.059C423.887 158.872 423.782 158.617 423.782 158.352V108.99C423.784 107.664 424.311 106.393 425.248 105.456C426.186 104.519 427.456 103.991 428.782 103.99H477.457C477.722 103.99 477.977 104.095 478.164 104.283C478.352 104.47 478.457 104.725 478.457 104.99C478.457 105.255 478.352 105.509 478.164 105.697C477.977 105.884 477.722 105.99 477.457 105.99H428.782C427.987 105.991 427.224 106.307 426.662 106.869C426.099 107.432 425.783 108.194 425.782 108.99V158.352C425.782 158.617 425.677 158.872 425.489 159.059C425.302 159.247 425.047 159.352 424.782 159.352Z" fill="#3F3D56"/>
<path id="Vector_4" d="M809.782 158.352H807.782V108.99C807.784 107.664 808.311 106.393 809.248 105.456C810.186 104.519 811.456 103.991 812.782 103.99H861.457V105.99H812.782C811.987 105.991 811.224 106.307 810.662 106.869C810.099 107.432 809.783 108.194 809.782 108.99V158.352Z" fill="#3F3D56"/>
<path id="Ellipse 268" d="M664.876 225.959C674.377 225.959 682.078 218.257 682.078 208.757C682.078 199.257 674.377 191.555 664.876 191.555C655.376 191.555 647.674 199.257 647.674 208.757C647.674 218.257 655.376 225.959 664.876 225.959Z" fill="#3F3D56"/>
<path id="Ellipse 265" d="M863.744 121.818C873.245 121.818 880.946 114.116 880.946 104.616C880.946 95.1156 873.245 87.414 863.744 87.414C854.244 87.414 846.542 95.1156 846.542 104.616C846.542 114.116 854.244 121.818 863.744 121.818Z" fill="#E6E6E6"/>
<path id="Ellipse 269" d="M755.063 225.959C764.564 225.959 772.265 218.257 772.265 208.757C772.265 199.257 764.564 191.555 755.063 191.555C745.563 191.555 737.861 199.257 737.861 208.757C737.861 218.257 745.563 225.959 755.063 225.959Z" fill="#CCCCCC"/>
<path id="Ellipse 265_2" d="M479.744 121.818C489.245 121.818 496.946 114.116 496.946 104.616C496.946 95.1156 489.245 87.414 479.744 87.414C470.244 87.414 462.542 95.1156 462.542 104.616C462.542 114.116 470.244 121.818 479.744 121.818Z" fill="#E6E6E6"/>
<path id="Rectangle 207" d="M680.446 0H648.539V21.9898H680.446V0Z" fill="#3F3D56"/>
<path id="Rectangle 209" d="M495.591 0H463.685V21.9898H495.591V0Z" fill="#CCCCCC"/>
<path id="Rectangle 208" d="M387.519 0H355.612V21.9898H387.519V0Z" fill="#58A446"/>
<g id="coffee">
<path id="Path 1465" d="M561.877 471.613C559.605 471.613 557.383 472.287 555.494 473.549C553.604 474.812 552.132 476.606 551.262 478.706C550.392 480.806 550.165 483.116 550.608 485.345C551.052 487.573 552.146 489.621 553.753 491.228C555.36 492.835 557.407 493.929 559.636 494.372C561.865 494.816 564.175 494.588 566.274 493.718C568.374 492.849 570.169 491.376 571.431 489.487C572.694 487.597 573.367 485.376 573.367 483.103C573.367 480.056 572.157 477.133 570.002 474.978C567.847 472.824 564.925 471.613 561.877 471.613ZM561.877 490.174C560.479 490.174 559.112 489.759 557.949 488.982C556.786 488.205 555.88 487.101 555.345 485.809C554.809 484.517 554.669 483.095 554.942 481.724C555.215 480.352 555.889 479.092 556.878 478.103C557.866 477.114 559.126 476.441 560.498 476.168C561.87 475.895 563.291 476.035 564.583 476.57C565.875 477.105 566.98 478.012 567.757 479.175C568.534 480.337 568.948 481.705 568.948 483.103V483.103C568.948 484.978 568.203 486.777 566.877 488.103C565.551 489.429 563.753 490.174 561.877 490.174Z" fill="#E4E4E4"/>
<path id="Path 1467" d="M517.684 462.774H561.877V506.513C561.877 508.04 561.271 509.504 560.191 510.584C559.112 511.663 557.647 512.27 556.12 512.27H523.441C521.915 512.27 520.45 511.663 519.371 510.584C518.291 509.504 517.684 508.04 517.684 506.513V462.774Z" fill="#E4E4E4"/>
<g id="steam-cc">
<g id="steam-c">
<path id="Vector_5" d="M531.168 445.547L530.804 444.42C530.269 442.766 530.268 440.454 530.802 438.797C531.042 438.051 530.992 436.966 530.689 436.374C530.386 435.781 529.945 435.907 529.705 436.653C528.764 439.574 528.765 443.652 529.708 446.569L530.073 447.696C530.772 449.858 530.773 452.879 530.075 455.044L529.702 456.202C529.461 456.949 529.512 458.034 529.815 458.626C529.944 458.878 530.097 459 530.25 459C530.456 459 530.661 458.776 530.799 458.347L531.172 457.189C532.277 453.759 532.276 448.972 531.168 445.547Z" fill="#E4E4E4"/>
</g>
</g>
<g id="steam-bb">
<g id="steam-b">
<path id="Vector_6" d="M540.168 445.547L539.804 444.42C539.269 442.766 539.268 440.454 539.802 438.797C540.042 438.051 539.992 436.966 539.689 436.374C539.386 435.781 538.945 435.907 538.705 436.653C537.764 439.574 537.765 443.652 538.708 446.569L539.073 447.696C539.772 449.858 539.773 452.879 539.075 455.044L538.702 456.202C538.461 456.949 538.512 458.034 538.815 458.626C538.944 458.878 539.097 459 539.25 459C539.456 459 539.661 458.776 539.799 458.347L540.172 457.189C541.277 453.759 541.276 448.972 540.168 445.547Z" fill="#E4E4E4"/>
</g>
</g>
<g id="steam-aa">
<g id="steam-a">
<path id="Vector_7" d="M548.168 445.547L547.804 444.42C547.269 442.766 547.268 440.454 547.802 438.797C548.042 438.051 547.992 436.966 547.689 436.374C547.386 435.781 546.945 435.907 546.705 436.653C545.764 439.574 545.765 443.652 546.708 446.569L547.073 447.696C547.772 449.858 547.773 452.879 547.075 455.044L546.702 456.202C546.461 456.949 546.512 458.034 546.815 458.626C546.944 458.878 547.097 459 547.25 459C547.456 459 547.661 458.776 547.799 458.347L548.172 457.189C549.277 453.759 549.276 448.972 548.168 445.547Z" fill="#E4E4E4"/>
</g>
</g>
</g>
<g id="bottom-line">
<path id="Path 944" d="M665.133 513.271H0.896347C0.650013 513.244 0.422327 513.127 0.256927 512.942C0.0915284 512.758 6.10352e-05 512.519 6.10352e-05 512.271C6.10352e-05 512.023 0.0915284 511.784 0.256927 511.6C0.422327 511.415 0.650013 511.298 0.896347 511.271H665.133C665.38 511.298 665.607 511.415 665.773 511.6C665.938 511.784 666.03 512.023 666.03 512.271C666.03 512.519 665.938 512.758 665.773 512.942C665.607 513.127 665.38 513.244 665.133 513.271Z" fill="#CACACA"/>
</g>
<g id="body-about">
<path id="Vector_8" d="M89.41 494.381L85.302 514.694L161.695 540.208L167.759 510.228L89.41 494.381Z" fill="#FFB6B6"/>
<path id="Vector_9" d="M97.0903 490.542L88.9991 530.544L88.9988 530.546C87.6307 537.307 83.633 543.248 77.8852 547.061C72.1373 550.875 65.1101 552.249 58.349 550.882L57.5206 550.714L70.7685 485.218L97.0903 490.542Z" fill="#2F2E41"/>
<path id="Ellipse 260" d="M192.856 502.146C266.62 502.146 326.416 485.42 326.416 464.787C326.416 444.154 266.62 427.428 192.856 427.428C119.093 427.428 59.2964 444.154 59.2964 464.787C59.2964 485.42 119.093 502.146 192.856 502.146Z" fill="#2F2E41"/>
<path id="Vector_10" d="M287.539 296.101C285.756 285.37 283.916 274.433 278.928 264.766C275.651 258.434 270.447 252.4 263.433 251.148C262.052 251.025 260.694 250.711 259.399 250.214C257.343 249.224 229.725 233.458 225.336 230.712C221.567 228.355 215.617 223.99 212.617 223.99C209.599 223.923 198.026 226.617 152.857 223.086C145.259 226.136 137.901 229.753 130.846 233.908C130.701 233.812 83.9645 258.909 82.2086 258.843C78.8834 258.703 75.7926 260.832 73.8864 263.513C71.9806 266.194 71.0866 269.513 70.1505 272.722C80.3585 295.455 89.6984 318.217 99.9073 340.95C100.385 341.806 100.639 342.769 100.646 343.75C100.44 344.768 100.006 345.725 99.3756 346.55C94.3693 354.592 94.5285 364.707 95.0753 374.159C95.6227 383.611 96.2995 393.595 92.0753 402.067C90.9264 404.393 89.4323 406.522 88.3395 408.848C85.7804 414.116 84.8556 430.965 86.3502 436.625L273.617 441.99C269.59 430.922 287.539 296.101 287.539 296.101Z" fill="#58A446"/>
<path id="Path 1421" d="M53.9634 341.958C53.5897 344.661 53.5521 347.4 53.8514 350.112L56.5354 388.658C56.7874 392.291 57.0354 395.915 57.3764 399.539C58.0204 406.572 58.9824 413.549 60.1764 420.516C60.2034 421.505 60.6217 422.443 61.3395 423.124C62.0574 423.806 63.0161 424.174 64.0054 424.149C75.8204 426.649 88.0274 426.549 100.085 425.868C118.485 424.841 165.559 422.898 168.435 419.162C171.311 415.426 169.635 409.383 165.885 406.362C162.135 403.341 100.014 395.976 100.014 395.976C100.621 391.166 102.452 386.636 104.189 382.069C107.309 373.969 110.223 365.603 110.279 356.926C110.335 348.249 107.066 339.126 99.9584 334.155C94.1114 330.074 86.5834 329.317 79.4584 329.485C74.2744 329.634 65.3174 328.392 60.5824 330.419C56.8354 332.069 54.6634 338.289 53.9634 341.958Z" fill="#FBBEBE"/>
<path id="Path 1423" d="M287.871 429.091C290.981 427.905 294.409 428.334 297.743 428.783C308.475 430.249 319.365 431.753 329.312 436.04C333.982 438.04 338.428 440.71 341.585 444.64C344.385 448.18 346.021 452.514 347.572 456.782L351.159 466.608C352.684 470.299 353.736 474.169 354.288 478.124C355.409 489.883 347.367 500.969 337.252 507.078C327.137 513.187 315.229 515.362 303.628 517.641C292.027 519.92 280.381 522.441 268.828 525.113C263.44 526.511 257.972 527.587 252.455 528.335C240.089 529.735 227.163 527.672 215.413 531.763C210.743 533.398 206.157 535.826 201.313 536.956C198.093 537.633 194.838 538.129 191.562 538.441L169.324 540.981C164.802 541.586 160.25 541.935 155.688 542.027C145.975 542.027 136.42 539.727 126.988 537.427C125.986 537.251 125.032 536.866 124.188 536.297C122.694 535.12 122.367 533.037 122.152 531.151C121.2 522.801 120.366 514.442 119.652 506.074C119.428 503.356 119.26 500.414 120.745 498.126C122.613 495.326 126.256 494.446 129.581 493.904C143.681 491.597 157.964 490.606 172.246 490.943C177.672 485.517 186.62 485.489 193.728 482.537C196.343 481.336 198.874 479.96 201.303 478.418C214.017 471 228.225 466.511 242.893 465.277C245.766 465.189 248.62 464.782 251.402 464.063C256.902 462.354 261.919 457.702 267.569 458.842C268.269 456.909 268.755 454.321 270.369 452.995C271.169 452.313 272.162 451.856 272.9 451.127C274.46 449.549 274.6 447.064 274.366 444.86C274.132 442.656 273.609 440.396 274.179 438.247C274.416 437.434 274.765 436.657 275.216 435.94C278.008 431.108 282.239 428.624 287.871 429.091Z" fill="#2F2E41"/>
<path id="Path 1430" d="M69.6104 273.414C68.7007 274.367 67.9953 275.495 67.5374 276.73C59.9878 293.745 55.5285 311.968 54.3684 330.546C54.3888 331.452 54.18 332.348 53.7614 333.152C53.3486 333.687 52.8892 334.184 52.3884 334.637C51.9518 335.155 51.6215 335.753 51.4162 336.398C51.2109 337.043 51.1347 337.723 51.192 338.397C51.2492 339.072 51.4388 339.729 51.7499 340.33C52.061 340.932 52.4875 341.466 53.005 341.903C53.0899 341.974 53.177 342.043 53.2664 342.109C54.8074 339.209 58.4964 338.261 61.7754 338.009C77.4754 336.767 92.8114 344.071 108.558 343.52C107.447 339.681 105.849 335.992 104.943 332.107C100.936 314.856 110.93 296.074 104.803 279.458C103.579 276.133 101.534 272.864 98.3124 271.407C96.9782 270.869 95.5821 270.499 94.1564 270.307C90.1774 269.588 82.2564 266.515 78.4094 267.748C76.9894 268.206 76.4294 269.541 75.2524 270.348C73.4644 271.49 71.0924 271.91 69.6104 273.414Z" fill="#58A446"/>
<path id="Path 1421_2" d="M287.651 330.419C282.916 328.392 273.959 329.634 268.775 329.485C261.65 329.317 254.122 330.074 248.275 334.155C241.167 339.126 237.898 348.249 237.954 356.926C238.01 365.603 240.924 373.969 244.044 382.069C245.781 386.636 247.612 391.166 248.219 395.976C248.219 395.976 186.098 403.341 182.348 406.362C178.598 409.383 176.922 415.426 179.798 419.162C182.674 422.898 272.413 426.649 284.228 424.149C285.218 424.174 286.176 423.806 286.894 423.124C287.612 422.443 288.03 421.505 288.057 420.516C289.251 413.549 290.213 406.572 290.857 399.539C291.198 395.915 291.446 392.291 291.698 388.658L294.382 350.112C294.682 347.4 294.644 344.661 294.27 341.958C293.57 338.289 291.398 332.069 287.651 330.419Z" fill="#FBBEBE"/>
<path id="Path 1430_2" d="M272.981 270.348C271.804 269.541 271.244 268.206 269.824 267.748C265.977 266.515 258.056 269.588 254.077 270.307C252.652 270.499 251.255 270.869 249.921 271.407C246.699 272.864 244.654 276.133 243.43 279.458C237.303 296.074 247.297 314.856 243.29 332.107C242.384 335.992 240.786 339.681 239.675 343.52C255.422 344.071 270.758 336.767 286.458 338.009C289.737 338.261 293.426 339.209 294.967 342.109C295.057 342.043 295.144 341.974 295.229 341.903C295.746 341.466 296.173 340.932 296.484 340.33C296.795 339.729 296.984 339.072 297.042 338.397C297.099 337.723 297.023 337.043 296.817 336.398C296.612 335.753 296.282 335.155 295.845 334.637C295.345 334.184 294.885 333.687 294.472 333.152C294.054 332.348 293.845 331.452 293.865 330.546C292.705 311.968 288.246 293.745 280.696 276.73C280.238 275.495 279.533 274.367 278.623 273.414C277.141 271.91 274.769 271.49 272.981 270.348Z" fill="#58A446"/>
<path id="Vector_11" d="M299.243 523.378L296.513 543.921L215.975 543.166L220.005 512.846L299.243 523.378Z" fill="#FFB6B6"/>
<path id="Vector_12" d="M319.853 520.785L311.049 587.025L310.211 586.914C303.374 586.005 297.177 582.417 292.984 576.939C288.792 571.462 286.947 564.543 287.855 557.705L287.855 557.704L293.232 517.247L319.853 520.785Z" fill="#2F2E41"/>
<path id="Path 1427" d="M109.769 439.487C109.769 440.421 108.303 439.487 108.169 438.487C107.142 430.931 101.145 424.701 94.1594 421.675C87.1734 418.649 79.2154 418.49 71.6504 419.209C60.2094 420.292 47.3664 424.673 43.1824 435.367C42.1924 437.867 32.9184 460.127 33.8234 465.133C36.2614 478.489 45.3954 489.912 56.4634 497.823C67.5314 505.734 80.4634 510.46 93.3634 514.723C127.47 525.971 162.462 534.329 197.97 539.707C203.723 540.576 209.533 541.379 215.043 543.228C219.974 544.881 224.588 547.356 229.408 549.299C240.616 553.799 252.674 555.407 264.619 556.986C266.655 557.248 268.99 557.434 270.494 556.052C272.437 554.252 271.794 551.111 271.241 548.524C269.214 538.687 270.915 528.448 276.014 519.795C278.014 516.433 280.614 512.986 280.236 509.095C279.788 504.556 275.267 501.343 270.765 500.614C266.263 499.885 261.687 500.96 257.165 501.548C255.616 501.904 253.992 501.743 252.542 501.09C251.871 500.636 251.261 500.097 250.73 499.484C247.616 496.48 243.631 494.539 239.345 493.94C235.06 493.341 230.695 494.115 226.876 496.15C225.204 497.084 222.676 495.001 220.936 494.217L201.294 485.325C178.729 475.117 156.052 464.861 132.179 458.398C130.275 458.023 128.464 457.271 126.855 456.184C125.669 455.25 124.819 453.984 123.726 452.943C121.344 450.692 118.026 449.795 115.171 448.198C112.316 446.601 109.115 442.69 109.769 439.487Z" fill="#2F2E41"/>
<path id="Vector_13" d="M160.617 425.99C168.349 425.99 174.617 419.722 174.617 411.99C174.617 404.258 168.349 397.99 160.617 397.99C152.885 397.99 146.617 404.258 146.617 411.99C146.617 419.722 152.885 425.99 160.617 425.99Z" fill="#FBBEBE"/>
<path id="Vector_14" d="M191.617 425.99C199.349 425.99 205.617 419.722 205.617 411.99C205.617 404.258 199.349 397.99 191.617 397.99C183.885 397.99 177.617 404.258 177.617 411.99C177.617 419.722 183.885 425.99 191.617 425.99Z" fill="#FBBEBE"/>
<path id="Vector_15" d="M278.035 443.537H85.6965C83.451 443.534 81.2981 442.641 79.7102 441.053C78.1223 439.466 77.229 437.313 77.2263 435.067V318.381C77.229 316.135 78.1223 313.982 79.7102 312.395C81.2981 310.807 83.451 309.914 85.6965 309.911H278.035C280.281 309.914 282.434 310.807 284.022 312.395C285.61 313.982 286.503 316.135 286.506 318.381V435.067C286.503 437.313 285.61 439.466 284.022 441.053C282.434 442.641 280.281 443.534 278.035 443.537Z" fill="#3F3D56"/>
<path id="Ellipse 263" d="M181.399 382.328C184.494 382.328 187.003 379.819 187.003 376.724C187.003 373.629 184.494 371.12 181.399 371.12C178.304 371.12 175.795 373.629 175.795 376.724C175.795 379.819 178.304 382.328 181.399 382.328Z" fill="white"/>
</g>
<g id="head-about">
<path id="Vector_16" d="M183.025 207.913C211.675 207.913 234.9 185.58 234.9 158.031C234.9 130.482 211.675 108.149 183.025 108.149C154.374 108.149 131.149 130.482 131.149 158.031C131.149 185.58 154.374 207.913 183.025 207.913Z" fill="#FEB8B8"/>
<path id="Vector_17" d="M231.477 114.997C223.722 102.887 211.581 93.9634 197.393 89.9442L191.025 94.413V88.6104C187.617 88.109 184.168 87.9158 180.723 88.0334L175.229 92.8138V88.4306C167.094 89.4027 159.256 91.985 152.211 96.0147C145.165 100.044 139.064 105.434 134.293 111.844C122.361 128.384 120.347 151.396 132.083 168.069C135.304 158.548 139.214 149.616 142.437 140.096C144.969 140.428 147.535 140.44 150.07 140.132L153.99 131.338L155.085 139.76C167.234 138.742 185.254 136.507 196.771 134.46L195.651 127.999L202.352 133.368C205.88 132.587 207.975 131.878 207.803 131.337C216.368 144.615 226.851 153.096 235.416 166.374C238.669 147.651 242.413 132.083 231.477 114.997Z" fill="#2F2E41"/>
<path id="Vector_18" d="M135.321 176.623C126.986 176.623 120.229 169.598 120.229 160.932V153.086C120.229 144.42 126.986 137.395 135.321 137.395V176.623Z" fill="#58A446"/>
<path id="Vector_19" d="M231.653 137.395C239.989 137.395 246.746 144.42 246.746 153.086V160.932C246.746 169.598 239.989 176.623 231.653 176.623V137.395Z" fill="#58A446"/>
<path id="Vector_20" d="M239.562 154.319H237.167C237.167 122.745 212.46 97.0571 182.09 97.0571C151.721 97.0571 127.013 122.745 127.013 154.319H124.619C124.619 121.372 150.4 94.5675 182.09 94.5675C213.78 94.5675 239.562 121.372 239.562 154.319Z" fill="#58A446"/>
<g id="left-note-cc">
<g id="left-note-c">
<path id="Vector_21" d="M79.9544 145.687C78.5359 145.242 77.9999 144.981 77.9999 144H76.9999L76.9909 160.673C76.6264 160.457 76.1384 160.316 75.4789 160.312C73.3554 160.312 71.0489 161.763 71.0009 163.921C70.9864 164.555 71.1534 165.107 71.4829 165.52C71.9119 166.057 72.6079 166.345 73.4959 166.354H73.5384C74.5279 166.354 75.6099 166.019 76.4324 165.456C77.4434 164.765 77.9999 163.797 77.9999 162.729C77.9999 162.649 77.9959 162.564 77.9899 162.475L77.9964 150.3C78.4444 150.612 78.9799 150.79 79.4639 150.95C80.7259 151.37 81.4999 151.697 81.4999 153.062C81.4989 154.709 80.5619 156.999 80.5524 157.022L81.3999 157.654C81.5964 157.339 81.7839 157.043 81.9614 156.763C83.1449 154.9 83.9999 153.554 83.9999 151.25C83.9999 146.96 81.6614 146.225 79.9544 145.687ZM73.5274 165.146C72.9224 165.14 72.4369 164.975 72.2024 164.681C72.0599 164.501 71.9934 164.264 72.0004 163.954C72.0314 162.561 73.8629 161.521 75.4984 161.521C76.7174 161.527 76.9464 162.062 76.9904 162.472L76.9894 162.729H76.9999C76.9999 163.556 76.3359 164.134 75.9404 164.405C75.2604 164.869 74.3519 165.146 73.5274 165.146ZM79.7289 149.786C78.5004 149.377 77.9999 149.122 77.9999 148.229H77.9979L77.9989 146.124C78.4974 146.478 79.1179 146.673 79.7024 146.857C81.3984 147.391 82.9999 147.894 82.9999 151.25C82.9999 152.251 82.8069 153.026 82.4569 153.801C82.4844 153.55 82.4999 153.302 82.4999 153.062C82.4999 150.707 80.8984 150.175 79.7289 149.786Z" fill="#58A446"/>
</g>
</g>
<g id="left-note-bb">
<g id="left-note-b">
<path id="Vector_22" d="M99.9544 125.687C98.5359 125.242 97.9999 124.981 97.9999 124H96.9999L96.9909 140.673C96.6264 140.457 96.1384 140.316 95.4789 140.312C93.3554 140.312 91.0489 141.763 91.0009 143.921C90.9864 144.555 91.1534 145.107 91.4829 145.52C91.9119 146.057 92.6079 146.345 93.4959 146.354H93.5384C94.5279 146.354 95.6099 146.019 96.4324 145.456C97.4434 144.765 97.9999 143.797 97.9999 142.729C97.9999 142.649 97.9959 142.564 97.9899 142.475L97.9964 130.3C98.4444 130.612 98.9799 130.79 99.4639 130.95C100.726 131.37 101.5 131.697 101.5 133.062C101.499 134.709 100.562 136.999 100.552 137.022L101.4 137.654C101.596 137.339 101.784 137.043 101.961 136.763C103.145 134.9 104 133.554 104 131.25C104 126.96 101.661 126.225 99.9544 125.687ZM93.5274 145.146C92.9224 145.14 92.4369 144.975 92.2024 144.681C92.0599 144.501 91.9934 144.264 92.0004 143.954C92.0314 142.561 93.8629 141.521 95.4984 141.521C96.7174 141.527 96.9464 142.062 96.9904 142.472L96.9894 142.729H96.9999C96.9999 143.556 96.3359 144.134 95.9404 144.405C95.2604 144.869 94.3519 145.146 93.5274 145.146ZM99.7289 129.786C98.5004 129.377 97.9999 129.122 97.9999 128.229H97.9979L97.9989 126.124C98.4974 126.478 99.1179 126.673 99.7024 126.857C101.398 127.391 103 127.894 103 131.25C103 132.251 102.807 133.026 102.457 133.801C102.484 133.55 102.5 133.302 102.5 133.062C102.5 130.707 100.898 130.175 99.7289 129.786Z" fill="#58A446"/>
</g>
</g>
<g id="left-note-aa">
<g id="left-note-a">
<path id="Vector_23" d="M85.9544 105.687C84.5359 105.242 83.9999 104.981 83.9999 104H82.9999L82.9909 120.673C82.6264 120.457 82.1384 120.316 81.4789 120.312C79.3554 120.312 77.0489 121.763 77.0009 123.921C76.9864 124.555 77.1534 125.107 77.4829 125.52C77.9119 126.057 78.6079 126.345 79.4959 126.354H79.5384C80.5279 126.354 81.6099 126.019 82.4324 125.456C83.4434 124.765 83.9999 123.797 83.9999 122.729C83.9999 122.649 83.9959 122.564 83.9899 122.475L83.9964 110.3C84.4444 110.612 84.9799 110.79 85.4639 110.95C86.7259 111.37 87.4999 111.697 87.4999 113.062C87.4989 114.709 86.5619 116.999 86.5524 117.022L87.3999 117.654C87.5964 117.339 87.7839 117.043 87.9614 116.763C89.1449 114.9 89.9999 113.554 89.9999 111.25C89.9999 106.96 87.6614 106.225 85.9544 105.687ZM79.5274 125.146C78.9224 125.14 78.4369 124.975 78.2024 124.681C78.0599 124.501 77.9934 124.264 78.0004 123.954C78.0314 122.561 79.8629 121.521 81.4984 121.521C82.7174 121.527 82.9464 122.062 82.9904 122.472L82.9894 122.729H82.9999C82.9999 123.556 82.3359 124.134 81.9404 124.405C81.2604 124.869 80.3519 125.146 79.5274 125.146ZM85.7289 109.786C84.5004 109.377 83.9999 109.122 83.9999 108.229H83.9979L83.9989 106.124C84.4974 106.478 85.1179 106.673 85.7024 106.857C87.3984 107.391 88.9999 107.894 88.9999 111.25C88.9999 112.251 88.8069 113.026 88.4569 113.801C88.4844 113.55 88.4999 113.302 88.4999 113.062C88.4999 110.707 86.8984 110.175 85.7289 109.786Z" fill="#58A446"/>
</g>
</g>
<g id="right-note-cc">
<g id="right-note-c">
<path id="Vector_24" d="M288.954 145.687C287.536 145.242 287 144.981 287 144H286L285.991 160.673C285.626 160.457 285.138 160.316 284.479 160.312C282.355 160.312 280.049 161.763 280.001 163.921C279.986 164.555 280.153 165.107 280.483 165.52C280.912 166.057 281.608 166.345 282.496 166.354H282.538C283.528 166.354 284.61 166.019 285.432 165.456C286.443 164.765 287 163.797 287 162.729C287 162.649 286.996 162.564 286.99 162.475L286.996 150.3C287.444 150.612 287.98 150.79 288.464 150.95C289.726 151.37 290.5 151.697 290.5 153.062C290.499 154.709 289.562 156.999 289.552 157.022L290.4 157.654C290.596 157.339 290.784 157.043 290.961 156.763C292.145 154.9 293 153.554 293 151.25C293 146.96 290.661 146.225 288.954 145.687ZM282.527 165.146C281.922 165.14 281.437 164.975 281.202 164.681C281.06 164.501 280.993 164.264 281 163.954C281.031 162.561 282.863 161.521 284.498 161.521C285.717 161.527 285.946 162.062 285.99 162.472L285.989 162.729H286C286 163.556 285.336 164.134 284.94 164.405C284.26 164.869 283.352 165.146 282.527 165.146ZM288.729 149.786C287.5 149.377 287 149.122 287 148.229H286.998L286.999 146.124C287.497 146.478 288.118 146.673 288.702 146.857C290.398 147.391 292 147.894 292 151.25C292 152.251 291.807 153.026 291.457 153.801C291.484 153.55 291.5 153.302 291.5 153.062C291.5 150.707 289.898 150.175 288.729 149.786Z" fill="#58A446"/>
</g>
</g>
<g id="right-note-bb">
<g id="right-note-b">
<path id="Vector_25" d="M266.954 123.687C265.536 123.242 265 122.981 265 122H264L263.991 138.673C263.626 138.457 263.138 138.316 262.479 138.312C260.355 138.312 258.049 139.763 258.001 141.921C257.986 142.555 258.153 143.107 258.483 143.52C258.912 144.057 259.608 144.345 260.496 144.354H260.538C261.528 144.354 262.61 144.019 263.432 143.456C264.443 142.765 265 141.797 265 140.729C265 140.649 264.996 140.564 264.99 140.475L264.996 128.3C265.444 128.612 265.98 128.79 266.464 128.95C267.726 129.37 268.5 129.697 268.5 131.062C268.499 132.709 267.562 134.999 267.552 135.022L268.4 135.654C268.596 135.339 268.784 135.043 268.961 134.763C270.145 132.9 271 131.554 271 129.25C271 124.96 268.661 124.225 266.954 123.687ZM260.527 143.146C259.922 143.14 259.437 142.975 259.202 142.681C259.06 142.501 258.993 142.264 259 141.954C259.031 140.561 260.863 139.521 262.498 139.521C263.717 139.527 263.946 140.062 263.99 140.472L263.989 140.729H264C264 141.556 263.336 142.134 262.94 142.405C262.26 142.869 261.352 143.146 260.527 143.146ZM266.729 127.786C265.5 127.377 265 127.122 265 126.229H264.998L264.999 124.124C265.497 124.478 266.118 124.673 266.702 124.857C268.398 125.391 270 125.894 270 129.25C270 130.251 269.807 131.026 269.457 131.801C269.484 131.55 269.5 131.302 269.5 131.062C269.5 128.707 267.898 128.175 266.729 127.786Z" fill="#58A446"/>
</g>
</g>
<g id="right-note-aa">
<g id="right-note-a">
<path id="Vector_26" d="M288.954 103.687C287.536 103.242 287 102.981 287 102H286L285.991 118.673C285.626 118.457 285.138 118.316 284.479 118.312C282.355 118.312 280.049 119.763 280.001 121.921C279.986 122.555 280.153 123.107 280.483 123.52C280.912 124.057 281.608 124.345 282.496 124.354H282.538C283.528 124.354 284.61 124.019 285.432 123.456C286.443 122.765 287 121.797 287 120.729C287 120.649 286.996 120.564 286.99 120.475L286.996 108.3C287.444 108.612 287.98 108.79 288.464 108.95C289.726 109.37 290.5 109.697 290.5 111.062C290.499 112.709 289.562 114.999 289.552 115.022L290.4 115.654C290.596 115.339 290.784 115.043 290.961 114.763C292.145 112.9 293 111.554 293 109.25C293 104.96 290.661 104.225 288.954 103.687ZM282.527 123.146C281.922 123.14 281.437 122.975 281.202 122.681C281.06 122.501 280.993 122.264 281 121.954C281.031 120.561 282.863 119.521 284.498 119.521C285.717 119.527 285.946 120.062 285.99 120.472L285.989 120.729H286C286 121.556 285.336 122.134 284.94 122.405C284.26 122.869 283.352 123.146 282.527 123.146ZM288.729 107.786C287.5 107.377 287 107.122 287 106.229H286.998L286.999 104.124C287.497 104.478 288.118 104.673 288.702 104.857C290.398 105.391 292 105.894 292 109.25C292 110.251 291.807 111.026 291.457 111.801C291.484 111.55 291.5 111.302 291.5 111.062C291.5 108.707 289.898 108.175 288.729 107.786Z" fill="#58A446"/>
</g>
</g>
</g>
<g id="work-a" class="work-button">
<path id="Ellipse 264" d="M371.439 175.398C380.94 175.398 388.641 167.696 388.641 158.196C388.641 148.696 380.94 140.994 371.439 140.994C361.939 140.994 354.237 148.696 354.237 158.196C354.237 167.696 361.939 175.398 371.439 175.398Z" fill="#58A446"/>
</g>
<g id="work-b" class="work-button">
<path id="Ellipse 266" d="M546.244 175.398C555.745 175.398 563.446 167.696 563.446 158.196C563.446 148.696 555.745 140.994 546.244 140.994C536.744 140.994 529.042 148.696 529.042 158.196C529.042 167.696 536.744 175.398 546.244 175.398Z" fill="#58A446"/>
</g>
<g id="work-c" class="work-button">
<path id="Ellipse 270" d="M711.36 175.398C720.861 175.398 728.562 167.696 728.562 158.196C728.562 148.696 720.861 140.994 711.36 140.994C701.86 140.994 694.158 148.696 694.158 158.196C694.158 167.696 701.86 175.398 711.36 175.398Z" fill="#58A446"/>
</g>
<g id="work-d" class="work-button">
<path id="Ellipse 272" d="M872.029 175.398C881.53 175.398 889.231 167.696 889.231 158.196C889.231 148.696 881.53 140.994 872.029 140.994C862.529 140.994 854.827 148.696 854.827 158.196C854.827 167.696 862.529 175.398 872.029 175.398Z" fill="#58A446"/>
</g>
<g id="contact">
<path id="Ellipse 271" d="M956.259 175.398C965.76 175.398 973.461 167.696 973.461 158.196C973.461 148.696 965.76 140.994 956.259 140.994C946.759 140.994 939.057 148.696 939.057 158.196C939.057 167.696 946.759 175.398 956.259 175.398Z" fill="#58A446"/>
</g>
</g>
<defs>
<clipPath id="clip0">
<rect width="973.461" height="587.025" fill="white"/>
</clipPath>
</defs>
</svg>
